<svg width="51" height="13" viewBox="0 0 51 13" fill="none" xmlns="http://www.w3.org/2000/svg">
<path d="M4.68806 0.986375C5.5414 0.986375 6.2614 1.08237 6.84806 1.27437C7.43473 1.45571 7.90406 1.76504 8.25606 2.20237C8.60806 2.63971 8.86406 3.22637 9.02406 3.96237C9.19473 4.69837 9.28006 5.61571 9.28006 6.71437C9.28006 7.80237 9.19473 8.71971 9.02406 9.46637C8.86406 10.2024 8.60806 10.789 8.25606 11.2264C7.90406 11.6637 7.43473 11.9784 6.84806 12.1704C6.2614 12.3517 5.5414 12.4424 4.68806 12.4424C3.85606 12.4424 3.14673 12.3517 2.56006 12.1704C1.9734 11.9784 1.49873 11.6637 1.13606 11.2264C0.773396 10.789 0.512063 10.2024 0.352063 9.46637C0.192063 8.71971 0.112063 7.80237 0.112063 6.71437C0.112063 5.61571 0.192063 4.69837 0.352063 3.96237C0.512063 3.22637 0.773396 2.63971 1.13606 2.20237C1.49873 1.76504 1.9734 1.45571 2.56006 1.27437C3.14673 1.08237 3.85606 0.986375 4.68806 0.986375ZM4.68806 2.61837C4.05873 2.61837 3.56273 2.74637 3.20006 3.00237C2.84806 3.24771 2.5974 3.66904 2.44806 4.26637C2.29873 4.85304 2.22406 5.66904 2.22406 6.71437C2.22406 7.75971 2.29873 8.58104 2.44806 9.17837C2.5974 9.76504 2.84806 10.1864 3.20006 10.4424C3.56273 10.6877 4.05873 10.8104 4.68806 10.8104C5.32806 10.8104 5.82406 10.6877 6.17606 10.4424C6.53873 10.1864 6.79473 9.76504 6.94406 9.17837C7.0934 8.58104 7.16806 7.75971 7.16806 6.71437C7.16806 5.66904 7.0934 4.85304 6.94406 4.26637C6.79473 3.66904 6.53873 3.24771 6.17606 3.00237C5.82406 2.74637 5.32806 2.61837 4.68806 2.61837ZM13.2594 4.37837V9.69037C13.2488 10.085 13.3234 10.3677 13.4834 10.5384C13.6541 10.709 13.9261 10.7944 14.2994 10.7944C14.6728 10.7944 15.0461 10.7144 15.4194 10.5544C15.7928 10.3944 16.2461 10.1544 16.7794 9.83437L16.9714 10.9864C16.3741 11.4664 15.7981 11.829 15.2434 12.0744C14.6888 12.3197 14.1128 12.4424 13.5154 12.4424C12.0541 12.4424 11.3234 11.7224 11.3234 10.2824V4.37837H13.2594ZM18.5234 4.37837V12.2344H16.9874L16.7794 10.7144L16.5874 10.4904V4.37837H18.5234ZM23.4516 2.13837V9.86637C23.4516 10.197 23.5209 10.4317 23.6596 10.5704C23.8089 10.709 24.0596 10.7784 24.4116 10.7784H25.4996L25.7076 12.1384C25.5262 12.1917 25.3076 12.2397 25.0516 12.2824C24.7956 12.325 24.5449 12.3517 24.2996 12.3624C24.0542 12.3837 23.8462 12.3944 23.6756 12.3944C22.9929 12.3944 22.4596 12.213 22.0756 11.8504C21.7022 11.477 21.5156 10.9437 21.5156 10.2504V2.13837H23.4516ZM25.7876 4.37837V5.72237H20.1236V4.45837L21.6596 4.37837H25.7876ZM28.8829 4.37837L29.1389 5.91437L29.3149 6.13837V12.2344H27.3789V4.37837H28.8829ZM32.7229 4.18637L32.5309 5.97837H31.9709C31.5549 5.97837 31.1336 6.04771 30.7069 6.18637C30.2803 6.32504 29.7469 6.53304 29.1069 6.81037L28.9789 5.67437C29.5336 5.20504 30.0989 4.84237 30.6749 4.58637C31.2509 4.31971 31.8056 4.18637 32.3389 4.18637H32.7229ZM37.5909 4.18637C38.5509 4.18637 39.3136 4.31971 39.8789 4.58637C40.4549 4.85304 40.8656 5.29037 41.1109 5.89837C41.3669 6.50637 41.4949 7.31171 41.4949 8.31437C41.4949 9.31704 41.3669 10.1224 41.1109 10.7304C40.8656 11.3277 40.4549 11.765 39.8789 12.0424C39.3136 12.309 38.5509 12.4424 37.5909 12.4424C36.6523 12.4424 35.8949 12.309 35.3189 12.0424C34.7536 11.765 34.3429 11.3277 34.0869 10.7304C33.8309 10.1224 33.7029 9.31704 33.7029 8.31437C33.7029 7.31171 33.8309 6.50637 34.0869 5.89837C34.3429 5.29037 34.7536 4.85304 35.3189 4.58637C35.8949 4.31971 36.6523 4.18637 37.5909 4.18637ZM37.5909 5.65837C37.1216 5.65837 36.7483 5.73837 36.4709 5.89837C36.2043 6.04771 36.0123 6.31437 35.8949 6.69837C35.7776 7.08237 35.7189 7.62104 35.7189 8.31437C35.7189 9.00771 35.7776 9.54637 35.8949 9.93037C36.0123 10.3144 36.2043 10.581 36.4709 10.7304C36.7483 10.8797 37.1216 10.9544 37.5909 10.9544C38.0709 10.9544 38.4496 10.8797 38.7269 10.7304C39.0043 10.581 39.1963 10.3144 39.3029 9.93037C39.4203 9.54637 39.4789 9.00771 39.4789 8.31437C39.4789 7.62104 39.4203 7.08237 39.3029 6.69837C39.1963 6.31437 39.0043 6.04771 38.7269 5.89837C38.4496 5.73837 38.0709 5.65837 37.5909 5.65837ZM46.3122 4.18637C46.6749 4.18637 47.0642 4.19704 47.4802 4.21837C47.9069 4.23971 48.3229 4.27171 48.7282 4.31437C49.1335 4.34637 49.4962 4.39437 49.8162 4.45837L49.6882 5.72237C49.1762 5.71171 48.6642 5.70104 48.1522 5.69037C47.6509 5.66904 47.1549 5.65837 46.6642 5.65837C46.2269 5.65837 45.8802 5.66904 45.6242 5.69037C45.3789 5.71171 45.2029 5.77571 45.0962 5.88237C45.0002 5.98904 44.9522 6.17037 44.9522 6.42637C44.9522 6.73571 45.0375 6.94371 45.2082 7.05037C45.3789 7.14637 45.6562 7.24237 46.0402 7.33837L48.1842 7.83437C48.8242 7.99437 49.2989 8.23971 49.6082 8.57037C49.9175 8.89037 50.0722 9.38637 50.0722 10.0584C50.0722 10.709 49.9495 11.205 49.7042 11.5464C49.4695 11.877 49.0909 12.1064 48.5682 12.2344C48.0562 12.3517 47.4002 12.4104 46.6002 12.4104C46.2909 12.4104 45.8322 12.3944 45.2242 12.3624C44.6162 12.341 43.9495 12.2717 43.2242 12.1544L43.3522 10.8904C43.5655 10.8904 43.8162 10.8957 44.1042 10.9064C44.4029 10.917 44.7175 10.9224 45.0482 10.9224C45.3895 10.9224 45.7362 10.9224 46.0882 10.9224C46.6535 10.9224 47.0855 10.9064 47.3842 10.8744C47.6935 10.8317 47.9069 10.7517 48.0242 10.6344C48.1415 10.5064 48.2002 10.325 48.2002 10.0904C48.2002 9.79171 48.0989 9.59437 47.8962 9.49837C47.7042 9.39171 47.4162 9.29037 47.0322 9.19437L44.9362 8.68237C44.4562 8.55437 44.0829 8.39437 43.8162 8.20237C43.5495 7.99971 43.3575 7.75437 43.2402 7.46637C43.1229 7.16771 43.0642 6.80504 43.0642 6.37837C43.0642 5.80237 43.1709 5.35437 43.3842 5.03437C43.6082 4.71437 43.9549 4.49037 44.4242 4.36237C44.9042 4.23437 45.5335 4.17571 46.3122 4.18637Z" fill="#131313"/>
</svg>
