<svg width="25" height="24" viewBox="0 0 25 24" fill="none" xmlns="http://www.w3.org/2000/svg">
<path fill-rule="evenodd" clip-rule="evenodd" d="M4.92694 7.48406C5.13788 7.27339 5.42381 7.15505 5.72194 7.15505C6.02006 7.15505 6.306 7.27339 6.51694 7.48406L12.4719 13.4391L18.4269 7.48407C18.5299 7.37354 18.6541 7.28488 18.7921 7.22339C18.9301 7.16191 19.0791 7.12884 19.2302 7.12618C19.3812 7.12351 19.5313 7.1513 19.6713 7.20788C19.8114 7.26446 19.9387 7.34868 20.0455 7.45551C20.1523 7.56234 20.2365 7.68959 20.2931 7.82967C20.3497 7.96975 20.3775 8.11979 20.3748 8.27085C20.3722 8.4219 20.3391 8.57087 20.2776 8.70887C20.2161 8.84687 20.1275 8.97107 20.0169 9.07407L13.2669 15.8241C13.056 16.0347 12.7701 16.1531 12.4719 16.1531C12.1738 16.1531 11.8879 16.0347 11.6769 15.8241L4.92694 9.07406C4.71626 8.86313 4.59793 8.57719 4.59793 8.27906C4.59793 7.98094 4.71626 7.695 4.92694 7.48406Z" fill="#131313"/>
</svg>
