<svg width="100" height="101" viewBox="0 0 100 101" fill="none" xmlns="http://www.w3.org/2000/svg">
<circle cx="50" cy="50.2129" r="50" fill="#FFD000"/>
<g clip-path="url(#clip0_261_3079)">
<path fill-rule="evenodd" clip-rule="evenodd" d="M50.0986 24.3441C45.1552 24.3441 41.1478 28.3515 41.1478 33.2949C41.1478 38.2383 45.1552 42.2457 50.0986 42.2457C55.042 42.2457 59.0495 38.2383 59.0495 33.2949C59.0495 28.3515 55.042 24.3441 50.0986 24.3441ZM37.0166 33.2949C37.0166 26.0699 42.8736 20.2129 50.0986 20.2129C57.3236 20.2129 63.1806 26.0699 63.1806 33.2949C63.1806 40.5199 57.3236 46.3769 50.0986 46.3769C42.8736 46.3769 37.0166 40.5199 37.0166 33.2949Z" fill="black"/>
<path fill-rule="evenodd" clip-rule="evenodd" d="M35.5322 58.0042C31.8429 60.0794 30.1315 62.6229 30.1315 64.9671C30.1315 68.5685 30.2425 70.5961 32.1244 72.1287C33.1449 72.9597 34.8508 73.7709 37.7709 74.362C40.6818 74.9513 44.6616 75.295 50.0988 75.295C55.536 75.295 59.5158 74.9513 62.4267 74.362C65.3468 73.7709 67.0527 72.9597 68.0732 72.1287C69.9551 70.5961 70.0661 68.5685 70.0661 64.9671C70.0661 62.6229 68.3547 60.0794 64.6654 58.0042C61.041 55.9654 55.895 54.6392 50.0988 54.6392C44.3026 54.6392 39.1566 55.9654 35.5322 58.0042ZM33.5068 54.4036C37.8569 51.9566 43.7273 50.5081 50.0988 50.5081C56.4703 50.5081 62.3407 51.9566 66.6908 54.4036C70.976 56.8141 74.1972 60.4674 74.1972 64.9671C74.1972 65.0599 74.1973 65.1535 74.1974 65.2478C74.2005 68.4474 74.2044 72.4633 70.6819 75.332C68.9483 76.7438 66.523 77.7478 63.2464 78.4111C59.9606 79.0762 55.678 79.4262 50.0988 79.4262C44.5196 79.4262 40.237 79.0762 36.9512 78.4111C33.6746 77.7478 31.2493 76.7438 29.5157 75.332C25.9932 72.4633 25.9971 68.4474 26.0002 65.2478C26.0003 65.1535 26.0004 65.0599 26.0004 64.9671C26.0004 60.4674 29.2216 56.8141 33.5068 54.4036Z" fill="black"/>
</g>
<defs>
<clipPath id="clip0_261_3079">
<rect x="16" y="16.2129" width="68" height="68" rx="34" fill="white"/>
</clipPath>
</defs>
</svg>
