<svg width="212" height="55" viewBox="0 0 212 55" fill="none" xmlns="http://www.w3.org/2000/svg">
<path d="M78.8031 33.606C78.6303 33.606 78.5633 33.6766 78.4928 33.8458L77.4241 36.6708C77.0785 37.5666 76.874 38.4624 76.874 38.875C76.874 39.5275 77.1843 39.8378 77.9073 39.9083C78.2847 39.9789 78.8384 40.0106 79.1135 40.0459C79.6319 40.0459 79.7342 40.2187 79.7342 40.3915C79.7342 40.6666 79.4591 40.7371 79.0112 40.7371C77.4629 40.7371 76.2921 40.6349 74.4652 40.6349C74.0878 40.6349 71.8131 40.7371 70.092 40.7371C69.6089 40.7371 69.4043 40.5996 69.4043 40.3915C69.4043 40.1164 69.6441 40.0459 70.0567 40.0459C70.4694 40.0106 70.815 39.9754 71.1571 39.9083C72.3632 39.6685 73.051 38.5999 73.774 36.9459L82.9682 16.1451C83.6242 14.6638 84.0015 14.1489 84.3789 14.1489C84.7245 14.1489 85.0349 14.6321 85.6203 15.87C86.5161 17.7991 92.3 30.9892 94.6418 36.2229C95.8126 38.9103 96.5709 39.7355 97.7771 39.9083C98.1544 40.0106 98.5706 40.0106 98.8774 40.0459C99.3253 40.0459 99.5334 40.1834 99.5334 40.3915C99.5334 40.6313 99.2936 40.7371 98.6376 40.7371C95.2625 40.7371 91.3372 40.6666 89.133 40.6349C88.5828 40.6349 88.3747 40.5326 88.3747 40.3245C88.3747 40.1164 88.5475 39.9789 88.8579 39.9119C89.2352 39.8413 89.3763 39.6015 89.2705 39.2912L86.964 33.8141C86.9287 33.6766 86.7912 33.606 86.6889 33.606H78.8031ZM85.6909 30.8481C85.8989 30.8481 85.8989 30.7458 85.8637 30.6753L82.8342 23.3044C82.7319 23.0646 82.6614 23.1316 82.5944 23.3044L79.6672 30.6753C79.6319 30.7776 79.7024 30.8481 79.8047 30.8481H85.6944H85.6909Z" fill="white"/>
<path d="M108.35 29.8504C108.35 34.6044 109.073 36.6006 110.967 37.9443C112.377 38.8753 113.548 38.9071 114.409 38.9071C115.509 38.9071 116.99 38.6673 118.197 37.6339C120.126 35.9799 120.126 32.3649 120.126 28.817V24.6837C120.126 19.6228 120.126 18.727 120.055 17.6231C119.985 16.3147 119.71 15.7292 118.574 15.5212C118.197 15.4506 117.989 15.4506 117.301 15.3836C116.853 15.3836 116.68 15.2461 116.68 15.038C116.68 14.8299 116.853 14.6924 117.474 14.6924C119.438 14.6924 121.536 14.7947 122.087 14.7947C122.707 14.7947 124.947 14.6924 126.633 14.6924C127.148 14.6924 127.356 14.7947 127.356 15.038C127.356 15.2108 127.218 15.3484 126.77 15.3836C126.393 15.4189 126.185 15.4189 125.702 15.5212C124.77 15.694 124.495 16.2089 124.393 17.6231C124.323 18.7235 124.291 19.6193 124.291 24.6837V28.0588C124.291 31.9841 124.118 36.2197 120.778 38.9423C118.645 40.7339 115.957 41.2136 113.615 41.2136C110.586 41.2136 107.553 40.7657 105.419 38.9071C103.592 37.3906 102.217 34.8795 102.217 29.9174V24.6837C102.217 19.3442 102.217 18.3814 102.115 17.281C102.044 16.3182 101.84 15.8703 101.046 15.627C100.669 15.4894 99.8751 15.4189 99.5648 15.3872C99.0499 15.3519 98.8418 15.2143 98.8418 15.0098C98.8418 14.8052 99.1169 14.6994 99.7728 14.6994C101.254 14.6994 104.731 14.8017 105.042 14.8017C105.317 14.8017 109.415 14.6994 110.656 14.6994C111.242 14.6994 111.415 14.8017 111.415 15.0098C111.415 15.2849 111.242 15.3554 110.794 15.3872C110.484 15.4224 110 15.4577 109.658 15.5247C108.696 15.7328 108.523 16.4558 108.452 17.5561C108.382 18.6565 108.35 20.2752 108.35 24.6837V29.8504Z" fill="white"/>
<path d="M134.628 24.6837C134.628 19.3442 134.558 18.6565 134.526 17.5561C134.455 16.1454 134.043 15.6975 133.217 15.5247C132.699 15.4224 132.149 15.4225 131.838 15.3872C131.426 15.3519 131.218 15.2144 131.218 15.0098C131.218 14.8053 131.458 14.6995 131.976 14.6995C133.457 14.6995 136.762 14.8017 137.245 14.8017C137.897 14.8017 141.206 14.6995 142.789 14.6995C146.027 14.6995 148.298 15.0098 149.814 15.8703C151.468 16.7661 152.95 18.5225 152.95 21.1393C152.95 24.0313 151.296 26.2355 148.337 28.0623C150.439 31.0918 152.95 34.7773 155.052 37.1896C156.878 39.221 157.704 39.8064 158.667 39.944C159.044 40.0145 159.252 40.0145 159.527 40.0463C159.904 40.0463 160.112 40.1838 160.112 40.3919C160.112 40.7022 159.767 40.7375 159.425 40.7375H156.325C152.777 40.7375 151.264 40.3919 150.058 39.6019C148.957 38.9459 147.853 37.4682 146.51 35.2957C144.926 32.6789 144.133 31.2682 143.512 30.3371C143.442 30.2348 143.272 30.129 143.099 30.129H140.828C140.655 30.129 140.553 30.1995 140.553 30.4041V32.1604C140.553 34.8796 140.553 36.4983 140.726 37.9443C140.796 38.8401 141.036 39.5983 142.07 39.8382C142.553 39.9757 142.93 39.9757 143.618 40.0463C144.168 40.0815 144.239 40.2191 144.239 40.4236C144.239 40.6282 143.999 40.734 143.516 40.734C141.209 40.734 137.453 40.6317 137.213 40.6317C136.801 40.6317 133.461 40.734 132.29 40.734C131.775 40.734 131.602 40.6317 131.602 40.3884C131.602 40.145 131.842 40.0427 132.223 40.0427C132.569 40.0075 133.016 39.9722 133.394 39.9052C134.081 39.7324 134.357 39.1117 134.462 37.9408C134.6 36.4948 134.635 34.0825 134.635 30.7427V24.6802L134.628 24.6837ZM140.55 26.9937C140.55 27.2688 140.652 27.4064 140.86 27.5086C141.512 27.8543 142.546 27.9565 143.512 27.9565C144.478 27.9565 145.131 27.819 145.681 27.4064C146.404 26.8562 147.025 25.3749 147.025 23.0684C147.025 18.1768 143.925 16.9037 142.133 16.9037C141.583 16.9037 140.997 16.9389 140.754 17.0412C140.617 17.1118 140.546 17.1435 140.546 17.4186V26.9937H140.55Z" fill="white"/>
<path d="M161.005 27.8188C161.005 20.931 165.618 14.2161 175.743 14.2161C184.49 14.2161 189.967 20.0705 189.967 27.0605C189.967 35.0839 184.525 41.2134 175.503 41.2134C165.343 41.2134 161.005 33.913 161.005 27.8152V27.8188ZM183.082 28.577C183.082 22.8601 180.705 16.3497 174.611 16.3497C171.444 16.3497 167.896 18.1061 167.896 26.267C167.896 32.7774 170.615 39.0092 176.54 39.0092C178.674 39.0092 183.082 38.0781 183.082 28.5735V28.577Z" fill="white"/>
<path d="M196.406 40.2507C195.82 40.0109 195.647 39.563 195.647 38.8717C195.647 36.0821 195.75 34.7737 195.856 33.8109C195.926 33.1902 196.064 32.9856 196.268 32.9856C196.508 32.9856 196.543 33.296 196.579 33.571C196.614 33.9167 196.649 34.227 196.751 34.6396C197.337 37.4646 199.918 39.0834 202.606 39.0834C205.879 39.0834 206.877 37.3976 206.877 35.9163C206.877 34.4351 206.602 33.2642 203.674 31.2681L201.541 29.7868C197.34 26.8243 196.169 24.4156 196.169 21.3826C196.169 17.422 199.442 14.2197 204.951 14.2197C206.432 14.2197 207.466 14.2903 208.912 14.5654C209.462 14.6676 210.047 14.8052 210.597 14.978C210.943 15.0803 211.045 15.1861 211.045 15.4612C210.975 16.5615 210.908 17.2527 210.908 20.3175C210.908 20.9382 210.805 21.178 210.53 21.178C210.358 21.178 210.22 21.0757 210.153 20.522C210.118 20.1764 210.015 19.3159 209.532 18.5259C208.876 17.4255 207.293 16.2511 204.813 16.2511C201.989 16.2511 200.955 17.8347 200.955 19.4182C200.955 20.5891 201.368 21.9327 203.71 23.5163L205.466 24.6871C210.287 27.8894 211.804 30.0267 211.804 33.504C211.804 35.8811 210.735 38.2228 208.153 39.7358C206.157 40.942 203.953 41.217 202.161 41.217C199.58 41.217 197.753 40.8714 196.409 40.2543L196.406 40.2507Z" fill="white"/>
<path d="M61.325 54.7492H41.9807C39.7025 54.721 37.537 53.3949 36.546 51.1766V51.1731V51.166L30.7586 38.177L27.2918 30.3864C27.2918 30.3864 27.2918 30.3828 27.2918 30.3793C27.26 30.3017 27.2248 30.2241 27.1895 30.1465C26.9956 29.7304 26.7663 29.3319 26.5018 28.9616C25.2569 27.1982 23.2783 25.9885 21.0177 25.7734C20.7779 25.7522 20.5345 25.7381 20.2877 25.7381C20.0408 25.7381 19.7974 25.7487 19.5576 25.7734L20.2877 24.1334L22.3967 19.3899L26.5794 9.99819L30.7621 0.606445L34.9449 9.99819L39.1276 19.3899L48.6392 40.755L48.6534 40.7903C51.3831 46.9163 55.9044 51.6809 61.3285 54.7457L61.325 54.7492Z" fill="#FFD000"/>
<path d="M28.6492 42.9205L24.9778 51.1661V51.1731C24.9778 51.1731 24.9708 51.1802 24.9708 51.1837C23.9692 53.4197 21.772 54.7493 19.4655 54.7493H0.195312C5.61946 51.6845 10.1408 46.9199 12.8705 40.7939L12.8846 40.7586L12.9128 40.6987L14.1718 37.8702L16.7958 31.977L16.9227 31.6913C17.5364 30.4535 18.8131 29.6035 20.2837 29.6035C21.7544 29.6035 23.0557 30.4711 23.6623 31.7266L23.7364 31.8924C23.7364 31.8924 23.7435 31.91 23.747 31.9171L24.4664 33.5288L26.3991 37.8667L28.6492 42.9205Z" fill="#FFD000"/>
</svg>
