<svg width="197" height="174" viewBox="0 0 197 174" fill="none" xmlns="http://www.w3.org/2000/svg">
<path d="M196.437 173.986H134.275C126.954 173.896 119.995 169.635 116.811 162.506V162.495V162.472L98.2128 120.732L87.0723 95.6971C87.0723 95.6971 87.0723 95.6858 87.0723 95.6745C86.9703 95.4251 86.857 95.1758 86.7437 94.9264C86.1204 93.5891 85.3837 92.3085 84.5337 91.1185C80.5331 85.4519 74.1752 81.5647 66.9107 80.8734C66.14 80.8054 65.358 80.76 64.5647 80.76C63.7714 80.76 62.9894 80.794 62.2188 80.8734L64.5647 75.6034L71.342 60.3603L84.7831 30.1801L98.2242 0L111.665 30.1801L125.106 60.3603L155.672 129.017L155.717 129.13C164.489 148.816 179.018 164.127 196.449 173.975L196.437 173.986Z" fill="#FFD000"/>
<path d="M91.4358 135.976L79.638 162.473V162.495C79.638 162.495 79.6154 162.518 79.6154 162.529C76.3968 169.714 69.3362 173.987 61.9243 173.987H0C17.4304 164.138 31.9595 148.827 40.7313 129.142L40.7767 129.028L40.8673 128.836L44.9133 119.747L53.3451 100.809L53.7531 99.8908C55.7251 95.9129 59.8277 93.1816 64.5536 93.1816C69.2795 93.1816 73.4615 95.9695 75.4108 100.004L75.6488 100.537C75.6488 100.537 75.6714 100.594 75.6828 100.616L77.9947 105.795L84.2053 119.735L91.4358 135.976Z" fill="#FFD000"/>
</svg>
